<?xml version="1.0" standalone="no"?><svg xmlns:xlink="http://www.w3.org/1999/xlink" xmlns="http://www.w3.org/2000/svg" viewBox="0 0 24 24" focusable="false" height="24" width="24"><g><path d="M23 4H1v17h22V4zm-1.466995 15.22898c0 .096043-.036144.17891-.108713.24914-.07257.06996-.1585.104874-.25779.104874H2.833358c-.09929 0-.18522-.034913-.25779-.104873-.07257-.07023-.108853-.153095-.108853-.24914V5.770615c0-.095907.036144-.178773.108853-.249006.07257-.06996.1585-.105008.25779-.105008h18.333427c.09915 0 .18508.035046.257508.105006.07243.070233.108713.1531.108713.249006V19.22898"/><path d="M5.999936 11c.555666 0 1.02784-.194342 1.41678-.583283C7.80553 10.027777 8 9.555602 8 9.000064c0-.555666-.194598-1.02784-.583283-1.41678C7.027777 7.19447 6.555602 7 5.999937 7c-.55554 0-1.027714.19447-1.416654.583283C4.19447 7.972223 4 8.444398 4 9.000063c0 .55554.194342 1.027842.583283 1.416654C4.972223 10.80553 5.444398 11 5.999936 11zm3.454604 3.925873l-1.818227-1.851746L4 16.777762V19h16v-5.185175L15.272835 9"/></g></svg>
