<?xml version="1.0" standalone="no"?>
<svg xmlns:xlink="http://www.w3.org/1999/xlink" xmlns="http://www.w3.org/2000/svg" width="410" height="97.9497421377288" viewBox="0 0 369.6822429906542 88.3177570093458" class="css-1j8o68f"><defs id="SvgjsDefs2594"/><g id="SvgjsG2595" featurekey="symbolFeature-0" transform="matrix(0.9813084006309509,0,0,0.9813084006309509,-5.299066917918553,-4.906542056074767)" fill="#4ecca3"><path xmlns="http://www.w3.org/2000/svg" d="M50.4,5c-24.8,0-45,20.2-45,45s20.2,45,45,45s45-20.2,45-45S75.2,5,50.4,5z M50.4,89.5  c-21.8,0-39.5-17.7-39.5-39.5s17.7-39.5,39.5-39.5S89.9,28.2,89.9,50S72.2,89.5,50.4,89.5z M44.1,41.1L23.2,69.5l33.6-10.7l0,0  l20.9-28.4L44.1,41.1L44.1,41.1z M50.5,44.2c3.2,0,5.7,2.6,5.7,5.7c0,3.2-2.6,5.7-5.7,5.7c-3.2,0-5.7-2.6-5.7-5.7  C44.7,46.8,47.3,44.2,50.5,44.2z"/></g><g id="SvgjsG2596" featurekey="nameFeature-0" transform="matrix(0.6344735026359558,0,0,0.6344735026359558,106.85794776908888,-0.6746600733087993)" fill="#393e46"><path d="M12.12 40.28 c-2.76 0 -5.4 -1.04 -7.12 -2.56 c-1.8 -1.56 -2.96 -3.64 -3.2 -5.68 l2.88 -0.8 c0.32 1.72 1.2 3.16 2.64 4.36 c1.4 1.2 3 1.8 4.8 1.8 c1.68 0 3.24 -0.4 4.48 -1.28 c1.24 -0.84 2.04 -2.28 2.04 -4.04 c0 -2.04 -1.08 -3.36 -2.44 -4.16 c-0.96 -0.56 -1.8 -0.8 -2.76 -1 l-3.84 -0.76 c-0.8 -0.16 -1.64 -0.44 -2.56 -0.84 c-0.92 -0.44 -1.72 -0.96 -2.4 -1.64 c-1.36 -1.32 -2.04 -3 -2.04 -5.04 c0 -1.6 0.44 -3.04 1.32 -4.28 c0.88 -1.28 2 -2.2 3.4 -2.88 c1.4 -0.64 2.88 -0.96 4.52 -0.96 c6.28 0 9.04 3.88 9.64 7 l-2.8 0.88 c-0.48 -2.08 -2.36 -5.04 -6.88 -5.04 c-3.12 -0.08 -6.16 2.12 -6.12 5.16 c0 2.24 1.4 4.04 4.24 4.6 l3.68 0.72 c2.48 0.48 4.4 1.32 5.68 2.56 c0.88 0.8 1.52 1.72 1.92 2.68 c0.4 1 0.6 1.88 0.6 2.68 c0.04 5.12 -4.28 8.64 -9.68 8.52 z M49.4 40 l-3.2 -7.44 l-15.88 0 l-3.2 7.44 l-3.12 0 l12.56 -29.16 l3.48 0 l12.6 29.16 l-3.24 0 z M45.04 29.759999999999998 l-6.8 -15.76 l-6.76 15.76 l13.56 0 z M64.88 40.28 c-2.76 0 -5.4 -1.04 -7.12 -2.56 c-1.8 -1.56 -2.96 -3.64 -3.2 -5.68 l2.88 -0.8 c0.32 1.72 1.2 3.16 2.64 4.36 c1.4 1.2 3 1.8 4.8 1.8 c1.68 0 3.24 -0.4 4.48 -1.28 c1.24 -0.84 2.04 -2.28 2.04 -4.04 c0 -2.04 -1.08 -3.36 -2.44 -4.16 c-0.96 -0.56 -1.8 -0.8 -2.76 -1 l-3.84 -0.76 c-0.8 -0.16 -1.64 -0.44 -2.56 -0.84 c-0.92 -0.44 -1.72 -0.96 -2.4 -1.64 c-1.36 -1.32 -2.04 -3 -2.04 -5.04 c0 -1.6 0.44 -3.04 1.32 -4.28 c0.88 -1.28 2 -2.2 3.4 -2.88 c1.4 -0.64 2.88 -0.96 4.52 -0.96 c6.28 0 9.04 3.88 9.64 7 l-2.8 0.88 c-0.48 -2.08 -2.36 -5.04 -6.88 -5.04 c-3.12 -0.08 -6.16 2.12 -6.12 5.16 c0 2.24 1.4 4.04 4.24 4.6 l3.68 0.72 c2.48 0.48 4.4 1.32 5.68 2.56 c0.88 0.8 1.52 1.72 1.92 2.68 c0.4 1 0.6 1.88 0.6 2.68 c0.04 5.12 -4.28 8.64 -9.68 8.52 z M90.24 13.719999999999999 l0 26.28 l-3.04 0 l0 -26.28 l-9.76 0 l0 -2.88 l22.56 0 l0 2.88 l-9.76 0 z M104.84 40 l0 -29.16 l3.08 0 l0 29.16 l-3.08 0 z M147.16 10.84 l3 0 l0 29.16 l-3.32 0 l-17.4 -24.8 l0 24.8 l-3.04 0 l0 -29.16 l3.56 0 l17.2 24.52 l0 -24.52 z M185.56 25.36 c0 2.76 -0.64 5.28 -1.88 7.56 c-1.28 2.28 -3.04 4.08 -5.28 5.4 c-2.28 1.32 -4.76 2 -7.56 2 c-2.04 0 -3.96 -0.4 -5.8 -1.16 c-1.8 -0.76 -3.36 -1.8 -4.64 -3.16 c-1.28 -1.28 -2.28 -2.84 -3.04 -4.68 c-0.72 -1.84 -1.12 -3.76 -1.12 -5.8 c0 -2.76 0.64 -5.28 1.92 -7.56 c1.24 -2.28 3 -4.12 5.28 -5.44 c2.24 -1.32 4.76 -1.96 7.52 -1.96 c2.04 0 3.96 0.36 5.8 1.12 c1.8 0.8 3.36 1.84 4.64 3.12 c1.28 1.36 2.32 2.92 3.04 4.72 c0.76 1.84 1.12 3.76 1.12 5.84 z M182.4 25.52 c0 -3.28 -1.2 -6.32 -3.2 -8.52 s-5 -3.6 -8.36 -3.6 c-2.16 0 -4.12 0.56 -5.88 1.6 c-1.76 1.12 -3.12 2.56 -4.08 4.36 c-0.96 1.84 -1.44 3.84 -1.44 6 c0 3.24 1.2 6.32 3.2 8.48 c2 2.2 5 3.6 8.32 3.6 c2.16 0 4.12 -0.56 5.88 -1.64 c1.8 -1.04 3.16 -2.52 4.12 -4.32 s1.44 -3.8 1.44 -5.96 z M201.16 13.719999999999999 l0 26.28 l-3.04 0 l0 -26.28 l-9.76 0 l0 -2.88 l22.56 0 l0 2.88 l-9.76 0 z M215.76 40 l0 -29.16 l3.08 0 l0 29.16 l-3.08 0 z M230 13.719999999999999 l0 10.48 l13.72 0 l0 2.8 l-13.72 0 l0 13 l-3.08 0 l0 -29.16 l18.08 0 l0 2.88 l-15 0 z M250.55999999999997 40 l0 -29.16 l3.08 0 l0 29.16 l-3.08 0 z M274.24 40.32 c-4 0 -7.72 -1.56 -10.32 -4.12 c-1.28 -1.28 -2.32 -2.84 -3.08 -4.68 c-0.76 -1.88 -1.16 -3.88 -1.16 -6 c0 -2.16 0.4 -4.2 1.2 -6.08 s1.84 -3.48 3.16 -4.76 c2.68 -2.6 6.4 -4.16 10.32 -4.16 c3.08 0 5.88 0.92 7.76 2.24 c0.96 0.64 1.8 1.4 2.56 2.24 c1.48 1.72 2.28 3.44 2.72 5.12 l-2.92 1.04 c-0.24 -0.96 -0.64 -2 -1.72 -3.52 c-0.56 -0.76 -1.16 -1.44 -1.88 -2.04 s-1.64 -1.12 -2.8 -1.52 c-1.16 -0.44 -2.4 -0.64 -3.8 -0.64 c-3.04 0 -5.96 1.24 -8 3.28 c-2.08 2.08 -3.4 5.16 -3.4 8.6 c0 2.28 0.48 4.36 1.48 6.2 c0.96 1.84 2.32 3.28 4.12 4.32 c1.72 1.04 3.68 1.56 5.84 1.56 c2.68 0 5 -0.92 6.4 -2.04 c0.72 -0.56 1.36 -1.2 1.92 -2 c0.56 -0.76 0.96 -1.44 1.24 -2 c0.24 -0.56 0.48 -1.16 0.68 -1.76 l2.92 1.04 c-0.44 1.56 -1.2 3.16 -2.68 4.96 c-0.72 0.88 -1.6 1.68 -2.52 2.36 c-1.92 1.36 -4.84 2.36 -8.04 2.36 z M314.44 40 l-3.2 -7.44 l-15.88 0 l-3.2 7.44 l-3.12 0 l12.56 -29.16 l3.48 0 l12.6 29.16 l-3.24 0 z M310.08000000000004 29.759999999999998 l-6.8 -15.76 l-6.76 15.76 l13.56 0 z M331.40000000000003 13.719999999999999 l0 26.28 l-3.04 0 l0 -26.28 l-9.76 0 l0 -2.88 l22.56 0 l0 2.88 l-9.76 0 z M346.00000000000006 40 l0 -29.16 l3.08 0 l0 29.16 l-3.08 0 z M384.44000000000005 25.36 c0 2.76 -0.64 5.28 -1.88 7.56 c-1.28 2.28 -3.04 4.08 -5.28 5.4 c-2.28 1.32 -4.76 2 -7.56 2 c-2.04 0 -3.96 -0.4 -5.8 -1.16 c-1.8 -0.76 -3.36 -1.8 -4.64 -3.16 c-1.28 -1.28 -2.28 -2.84 -3.04 -4.68 c-0.72 -1.84 -1.12 -3.76 -1.12 -5.8 c0 -2.76 0.64 -5.28 1.92 -7.56 c1.24 -2.28 3 -4.12 5.28 -5.44 c2.24 -1.32 4.76 -1.96 7.52 -1.96 c2.04 0 3.96 0.36 5.8 1.12 c1.8 0.8 3.36 1.84 4.64 3.12 c1.28 1.36 2.32 2.92 3.04 4.72 c0.76 1.84 1.12 3.76 1.12 5.84 z M381.2800000000001 25.52 c0 -3.28 -1.2 -6.32 -3.2 -8.52 s-5 -3.6 -8.36 -3.6 c-2.16 0 -4.12 0.56 -5.88 1.6 c-1.76 1.12 -3.12 2.56 -4.08 4.36 c-0.96 1.84 -1.44 3.84 -1.44 6 c0 3.24 1.2 6.32 3.2 8.48 c2 2.2 5 3.6 8.32 3.6 c2.16 0 4.12 -0.56 5.88 -1.64 c1.8 -1.04 3.16 -2.52 4.12 -4.32 s1.44 -3.8 1.44 -5.96 z M411.24000000000007 10.84 l3 0 l0 29.16 l-3.32 0 l-17.4 -24.8 l0 24.8 l-3.04 0 l0 -29.16 l3.56 0 l17.2 24.52 l0 -24.52 z"/></g><g id="SvgjsG2597" featurekey="nameFeature-1" transform="matrix(1.5665843486785889,0,0,1.5665843486785889,105.18014820499697,18.51953467685169)" fill="#393e46"><path d="M12.12 40.28 c-2.76 0 -5.4 -1.04 -7.12 -2.56 c-1.8 -1.56 -2.96 -3.64 -3.2 -5.68 l2.88 -0.8 c0.32 1.72 1.2 3.16 2.64 4.36 c1.4 1.2 3 1.8 4.8 1.8 c1.68 0 3.24 -0.4 4.48 -1.28 c1.24 -0.84 2.04 -2.28 2.04 -4.04 c0 -2.04 -1.08 -3.36 -2.44 -4.16 c-0.96 -0.56 -1.8 -0.8 -2.76 -1 l-3.84 -0.76 c-0.8 -0.16 -1.64 -0.44 -2.56 -0.84 c-0.92 -0.44 -1.72 -0.96 -2.4 -1.64 c-1.36 -1.32 -2.04 -3 -2.04 -5.04 c0 -1.6 0.44 -3.04 1.32 -4.28 c0.88 -1.28 2 -2.2 3.4 -2.88 c1.4 -0.64 2.88 -0.96 4.52 -0.96 c6.28 0 9.04 3.88 9.64 7 l-2.8 0.88 c-0.48 -2.08 -2.36 -5.04 -6.88 -5.04 c-3.12 -0.08 -6.16 2.12 -6.12 5.16 c0 2.24 1.4 4.04 4.24 4.6 l3.68 0.72 c2.48 0.48 4.4 1.32 5.68 2.56 c0.88 0.8 1.52 1.72 1.92 2.68 c0.4 1 0.6 1.88 0.6 2.68 c0.04 5.12 -4.28 8.64 -9.68 8.52 z M27.919999999999998 40 l0 -29.16 l18.24 0 l0 2.84 l-15.16 0 l0 10.08 l13.88 0 l0 2.84 l-13.88 0 l0 10.56 l15.32 0 l0 2.84 l-18.4 0 z M74 40 l-3.72 0 l-8.64 -11.8 l-5.92 0 l0 11.8 l-3.08 0 l0 -29.16 l10.12 0 c3.44 0 6.2 0.96 7.8 2.56 s2.44 3.6 2.44 5.96 c0 4.92 -3.68 7.76 -8 8.32 z M55.71999999999999 13.719999999999999 l0 11.68 l6.76 0 c2.56 0 4.56 -0.72 5.72 -1.88 c1.12 -1.12 1.68 -2.52 1.68 -4.08 c0 -2.88 -1.76 -5.72 -7.32 -5.72 l-6.84 0 z M103.11999999999999 10.84 l-11.72 29.16 l-3.4 0 l-11.72 -29.16 l3.36 0 l10.08 25.72 l10.12 -25.72 l3.28 0 z M108.04 40 l0 -29.16 l3.08 0 l0 29.16 l-3.08 0 z M131.72 40.32 c-4 0 -7.72 -1.56 -10.32 -4.12 c-1.28 -1.28 -2.32 -2.84 -3.08 -4.68 c-0.76 -1.88 -1.16 -3.88 -1.16 -6 c0 -2.16 0.4 -4.2 1.2 -6.08 s1.84 -3.48 3.16 -4.76 c2.68 -2.6 6.4 -4.16 10.32 -4.16 c3.08 0 5.88 0.92 7.76 2.24 c0.96 0.64 1.8 1.4 2.56 2.24 c1.48 1.72 2.28 3.44 2.72 5.12 l-2.92 1.04 c-0.24 -0.96 -0.64 -2 -1.72 -3.52 c-0.56 -0.76 -1.16 -1.44 -1.88 -2.04 s-1.64 -1.12 -2.8 -1.52 c-1.16 -0.44 -2.4 -0.64 -3.8 -0.64 c-3.04 0 -5.96 1.24 -8 3.28 c-2.08 2.08 -3.4 5.16 -3.4 8.6 c0 2.28 0.48 4.36 1.48 6.2 c0.96 1.84 2.32 3.28 4.12 4.32 c1.72 1.04 3.68 1.56 5.84 1.56 c2.68 0 5 -0.92 6.4 -2.04 c0.72 -0.56 1.36 -1.2 1.92 -2 c0.56 -0.76 0.96 -1.44 1.24 -2 c0.24 -0.56 0.48 -1.16 0.68 -1.76 l2.92 1.04 c-0.44 1.56 -1.2 3.16 -2.68 4.96 c-0.72 0.88 -1.6 1.68 -2.52 2.36 c-1.92 1.36 -4.84 2.36 -8.04 2.36 z M150.44 40 l0 -29.16 l18.24 0 l0 2.84 l-15.16 0 l0 10.08 l13.88 0 l0 2.84 l-13.88 0 l0 10.56 l15.32 0 l0 2.84 l-18.4 0 z"/></g></svg>